<?xml version="1.0" encoding="utf-8"?>
<!-- Generator: Adobe Illustrator 28.0.0, SVG Export Plug-In . SVG Version: 6.00 Build 0)  -->
<svg version="1.1" id="Layer_1" xmlns="http://www.w3.org/2000/svg" xmlns:xlink="http://www.w3.org/1999/xlink" x="0px" y="0px"
	 viewBox="0 0 320.4 188.7" style="enable-background:new 0 0 320.4 188.7;" xml:space="preserve">
<style type="text/css">
	.st0{fill:#12D4A5;}
</style>
<path class="st0" d="M83.1,171.1c0-51.3,0-102.3,0-153.3c0.5-0.3,0.7,0.2,0.9,0.4c4.1,4.2,8.2,8.5,12.4,12.6
	c5.3,5.1,10.4,10.3,15.5,15.6c3.9,4,7.9,7.8,11.8,11.7c6,6,12,12.2,18.1,18.2c4.9,4.8,9.4,10,14.2,14.9c3.9,4,8.1,8.3,12.1,12.2
	c2.8,2.9,5,1.4,3.8-1.2c-2-4-3.6-7.3-5.6-11.6c-0.3-1.3-0.2-2.2,0.8-3.2c6.8-6.8,13.4-13.7,20.3-20.4c4.9-4.9,9.8-9.8,14.7-14.7
	c5.3-5.3,10.5-10.5,15.8-15.8c4.8-4.8,9.7-9.5,14.4-14.4c1.5-1.6,3.2-3,4.9-4.6v153.6c-1.6-1.3-2.9-2.7-4.2-3.9
	c-3.4-3.2-6.7-6.7-10-10c-6.5-6.5-12.9-13.2-19.5-19.6c-4.9-4.8-9.7-9.6-14.5-14.5c-1.1-1-2.1-2.1-3.2-3.1c-1.3-1.3-3.5-1.3-4.9,0
	c-1.1,1.1-2.3,2.2-3.4,3.3c-5.5,5.5-11,11-16.4,16.5c-0.7,0.7-1.1,0.7-1.8,0c-5.3-5.1-10.1-10.5-15.2-16
	c-7.4-7.8-14.5-15.4-21.4-23.1c-1.4-1.4-3.2,0-2.8,1.4c2.2,6.1,4.2,10.9,6.3,17c0.6,1.7,1.1,3.2,1.7,4.8c0.6,1.8-0.3,2.9-0.4,3
	c-0.5,0.5-0.9,0.9-1.4,1.5c-4.5,4.6-9.2,9.3-13.8,13.8c-4.1,4-8.1,8-12.1,12.1c-5.4,5.5-11,10.8-16.3,16.3
	C83.8,170.7,83.6,170.8,83.1,171.1L83.1,171.1z"/>
</svg>
